<svg xmlns="http://www.w3.org/2000/svg" xmlns:xlink="http://www.w3.org/1999/xlink" width="500" zoomAndPan="magnify" viewBox="0 0 375 149.999998" height="200" preserveAspectRatio="xMidYMid meet" version="1.0"><defs><g/></defs><g fill="#5e17eb" fill-opacity="1"><g transform="translate(11.448898, 143.930694)"><g><path d="M 28.828125 -35.453125 C 34.128906 -35.453125 38.628906 -33.601562 42.328125 -29.90625 C 46.035156 -26.207031 47.890625 -21.707031 47.890625 -16.40625 C 47.890625 -11.207031 46.035156 -6.757812 42.328125 -3.0625 C 38.628906 0.632812 34.128906 2.484375 28.828125 2.484375 C 23.640625 2.484375 19.191406 0.632812 15.484375 -3.0625 C 11.785156 -6.757812 9.9375 -11.207031 9.9375 -16.40625 C 9.9375 -21.707031 11.785156 -26.207031 15.484375 -29.90625 C 19.191406 -33.601562 23.640625 -35.453125 28.828125 -35.453125 Z M 28.828125 -35.453125 "/></g></g></g><g fill="#000000" fill-opacity="1"><g transform="translate(53.706708, 143.930694)"><g><path d="M -4.96875 -136.6875 L 32.46875 -136.6875 L 60.96875 -92.953125 L 89.46875 -136.6875 L 126.921875 -136.6875 L 76.546875 -61.296875 L 76.546875 0 L 45.390625 0 L 45.390625 -61.296875 Z M -4.96875 -136.6875 "/></g></g></g><g fill="#000000" fill-opacity="1"><g transform="translate(160.071811, 143.930694)"><g><path d="M 17.96875 -10.109375 C 8.53125 -18.503906 3.8125 -29.273438 3.8125 -42.421875 C 3.8125 -55.566406 8.722656 -66.363281 18.546875 -74.8125 C 28.378906 -83.257812 40.535156 -87.484375 55.015625 -87.484375 C 69.253906 -87.484375 81.257812 -83.226562 91.03125 -74.71875 C 100.8125 -66.21875 105.703125 -55.445312 105.703125 -42.40625 C 105.703125 -29.375 100.925781 -18.632812 91.375 -10.1875 C 81.820312 -1.738281 69.703125 2.484375 55.015625 2.484375 C 39.765625 2.484375 27.414062 -1.710938 17.96875 -10.109375 Z M 40.671875 -56.828125 C 36.859375 -53.078125 34.953125 -48.273438 34.953125 -42.421875 C 34.953125 -36.566406 36.773438 -31.785156 40.421875 -28.078125 C 44.066406 -24.378906 48.875 -22.53125 54.84375 -22.53125 C 60.582031 -22.53125 65.300781 -24.40625 69 -28.15625 C 72.707031 -31.914062 74.5625 -36.671875 74.5625 -42.421875 C 74.5625 -48.273438 72.65625 -53.078125 68.84375 -56.828125 C 65.03125 -60.585938 60.363281 -62.46875 54.84375 -62.46875 C 49.207031 -62.46875 44.484375 -60.585938 40.671875 -56.828125 Z M 40.671875 -56.828125 "/></g></g></g><g fill="#000000" fill-opacity="1"><g transform="translate(254.010942, 143.930694)"><g><path d="M 17.96875 -10.109375 C 8.53125 -18.503906 3.8125 -29.273438 3.8125 -42.421875 C 3.8125 -55.566406 8.722656 -66.363281 18.546875 -74.8125 C 28.378906 -83.257812 40.535156 -87.484375 55.015625 -87.484375 C 69.253906 -87.484375 81.257812 -83.226562 91.03125 -74.71875 C 100.8125 -66.21875 105.703125 -55.445312 105.703125 -42.40625 C 105.703125 -29.375 100.925781 -18.632812 91.375 -10.1875 C 81.820312 -1.738281 69.703125 2.484375 55.015625 2.484375 C 39.765625 2.484375 27.414062 -1.710938 17.96875 -10.109375 Z M 40.671875 -56.828125 C 36.859375 -53.078125 34.953125 -48.273438 34.953125 -42.421875 C 34.953125 -36.566406 36.773438 -31.785156 40.421875 -28.078125 C 44.066406 -24.378906 48.875 -22.53125 54.84375 -22.53125 C 60.582031 -22.53125 65.300781 -24.40625 69 -28.15625 C 72.707031 -31.914062 74.5625 -36.671875 74.5625 -42.421875 C 74.5625 -48.273438 72.65625 -53.078125 68.84375 -56.828125 C 65.03125 -60.585938 60.363281 -62.46875 54.84375 -62.46875 C 49.207031 -62.46875 44.484375 -60.585938 40.671875 -56.828125 Z M 40.671875 -56.828125 "/></g></g></g></svg>